<svg xmlns="http://www.w3.org/2000/svg" width="202" height="157" viewBox="0 0 202 157">
    <defs>
        <filter id="a" width="120.8%" height="125.7%" x="-10.4%" y="-12.9%" filterUnits="objectBoundingBox">
            <feOffset dy="8" in="SourceAlpha" result="shadowOffsetOuter1"/>
            <feGaussianBlur in="shadowOffsetOuter1" result="shadowBlurOuter1" stdDeviation="18"/>
            <feColorMatrix in="shadowBlurOuter1" result="shadowMatrixOuter1" values="0 0 0 0 0.670588235 0 0 0 0 0.705882353 0 0 0 0 0.741176471 0 0 0 0.269361413 0"/>
            <feMerge>
                <feMergeNode in="shadowMatrixOuter1"/>
                <feMergeNode in="SourceGraphic"/>
            </feMerge>
        </filter>
    </defs>
    <path fill="#000" fill-opacity=".15" fill-rule="nonzero" d="M109.079 28.637a32.803 32.803 0 0 0-27.72-15.2 33.1 33.1 0 0 0-4.51.308C70.705 5.29 60.77.151 50.224.151c-17.935 0-32.56 14.44-32.863 32.306A32.797 32.797 0 0 0 0 61.446c0 18.123 14.744 32.867 32.868 32.867h74.211c18.123 0 32.868-14.744 32.868-32.867 0-17.453-13.672-31.772-30.868-32.809zm-2 56.793H74.415V47.046l13.737 13.736a4.441 4.441 0 1 0 6.282-6.281l-21.32-21.32a4.442 4.442 0 0 0-6.281 0l-21.32 21.32a4.443 4.443 0 0 0 6.281 6.282l13.738-13.737V85.43H32.868c-13.225 0-23.985-10.759-23.985-23.984 0-9.694 5.777-18.38 14.718-22.13a4.441 4.441 0 0 0 2.71-4.434 24.461 24.461 0 0 1-.07-1.863c0-13.225 10.76-23.984 23.984-23.984 8.472 0 16.404 4.546 20.702 11.865a4.44 4.44 0 0 0 4.858 2.072 24.107 24.107 0 0 1 5.575-.652 23.95 23.95 0 0 1 21.212 12.784 4.426 4.426 0 0 0 4.02 2.363c.163-.003.324-.007.486-.007 13.226 0 23.985 10.76 23.985 23.986 0 13.225-10.76 23.984-23.984 23.984z" filter="url(#a)" transform="translate(31 22)"/>
</svg>
