<svg xmlns="http://www.w3.org/2000/svg" xmlns:xlink="http://www.w3.org/1999/xlink" width="25" height="27" viewBox="0 0 25 27">
    <defs>
        <path id="a" d="M0 0h24.78v26.586H0z"/>
    </defs>
    <g fill="none" fill-rule="evenodd">
        <mask id="b" fill="#fff">
            <use xlink:href="#a"/>
        </mask>
        <path fill="#323232" d="M6.792 6.836h-.049a.525.525 0 0 1-.493-.55 3.17 3.17 0 0 1 .193-.979c.114-.286.264-.514.471-.686.193-.171.414-.278.629-.343.214-.064.428-.1.621-.114a.515.515 0 0 1 .565.464.51.51 0 0 1-.465.565c-.343.035-.535.093-.672.207a.72.72 0 0 0-.185.286c-.058.142-.1.357-.122.657a.518.518 0 0 1-.493.493zm6.144 2.735c.121 0 .342-.135.342-.464V4.114c0-.321-.22-.464-.342-.464H5.893c-.122 0-.336.143-.336.464v4.993c0 .329.214.464.336.464h7.043zm-7.043 1.043c-.821 0-1.379-.743-1.379-1.507V4.114c0-.757.558-1.5 1.379-1.5h7.043c.828 0 1.378.743 1.378 1.5v4.993c0 .764-.55 1.507-1.378 1.507H5.893zm-.536 2.107a.524.524 0 0 1-.521-.521c0-.286.236-.514.521-.514h7.986c.285 0 .52.228.52.514a.524.524 0 0 1-.52.521H5.357zm10.4 10.857l-.015-.092V4.3c0-1.872-1.299-3.264-2.749-3.264h-7.05c-1.45 0-2.75 1.392-2.75 3.264v19.186l-.021.092h12.585zM.514 24.614a.518.518 0 0 1 0-1.036h1.657l-.014-.092V4.3C2.157 2 3.786 0 5.943 0h7.05c2.156 0 3.785 2 3.785 4.3v9.114l.365-.093a1.352 1.352 0 0 1 1.471 1.172c0 .007.008.028.008.035.15 2.529.385 4.25.956 5.208.265.442.58.678.98.771.427.093 1.035.036 1.877-.286.95-.393 1.415-1.007 1.279-2.114-.142-1.221-1.007-3.036-2.964-5.679-.407-.55-.728-1.185-.764-1.942l.02-.315-.913.122c-.043.007-.086.007-.121.007a.523.523 0 0 1-.472-.557l.207-2.65c.014-.157.1-.3.228-.393l1.607-1.086a.518.518 0 1 1 .586.857l-1.406.95-.136 1.757 1.864-.257.07-2.928c0-.022.009-.036.009-.057.085-.629-.094-1.479-.472-2.243-.385-.772-.908-1.343-1.4-1.536a.523.523 0 0 1-.293-.671.524.524 0 0 1 .679-.293c1.493.585 2.6 2.857 2.543 4.55l-.022.285-.093 3.365a.52.52 0 0 1-.443.5l-.978.135-.028.386c.02.507.235.957.564 1.4 1.964 2.657 2.978 4.657 3.164 6.172.193 1.621-.586 2.642-1.936 3.207-.707.264-1.35.407-1.929.393a3.408 3.408 0 0 1-.55-.065c-.735-.164-1.27-.614-1.65-1.257-.635-1.064-.893-2.764-1.043-4.786l-.056-.85-.03-.092c-.099-.222-.413-.286-.606.035a.542.542 0 0 1-.136.15l-.036.015v8.75l-.014.092h1.621c.287 0 .522.229.522.515a.525.525 0 0 1-.522.521H.515zm0 1.972a.518.518 0 0 1 0-1.036h17.871c.287 0 .522.236.522.521a.518.518 0 0 1-.522.515H.515z" mask="url(#b)"/>
    </g>
</svg>
