<svg xmlns="http://www.w3.org/2000/svg" width="119" height="152" viewBox="0 0 119 152">
    <path fill="#D9D9D9" fill-rule="nonzero" d="M117.68 53.766a4.726 4.726 0 0 1 0 6.552l-11.512 11.945 2.319 16.465c.354 2.517-1.343 4.862-3.837 5.301l-13.053 2.298v50.96c0 1.633-.842 3.15-2.226 4.009a4.677 4.677 0 0 1-4.566.206l-25.303-12.698-25.306 12.698a4.671 4.671 0 0 1-4.566-.206 4.715 4.715 0 0 1-2.226-4.008V96.327L14.352 94.03c-2.494-.439-4.191-2.785-3.837-5.301l2.318-16.465L1.321 60.318a4.725 4.725 0 0 1 0-6.552l11.512-11.948-2.318-16.455c-.355-2.517 1.343-4.863 3.837-5.302l16.308-2.87 7.76-14.686A4.684 4.684 0 0 1 44.627.48l14.875 7.298L74.373.48a4.685 4.685 0 0 1 6.207 2.024l7.763 14.687 16.306 2.87c2.495.439 4.192 2.785 3.837 5.302l-2.32 16.455 11.514 11.948zM61.6 129.32l20.61 10.343v-31.162l-1.63 3.082a4.693 4.693 0 0 1-4.148 2.503 4.665 4.665 0 0 1-2.06-.48l-14.87-7.303-14.874 7.303a4.684 4.684 0 0 1-6.208-2.024l-1.63-3.084v31.165l20.613-10.343a4.676 4.676 0 0 1 4.198 0zm36.225-61.955l9.95-10.325-9.95-10.326a4.726 4.726 0 0 1-1.274-3.937l2.004-14.222-14.093-2.48a4.696 4.696 0 0 1-3.335-2.433l-6.71-12.695-12.854 6.308a4.676 4.676 0 0 1-4.122 0l-12.857-6.308-6.706 12.694a4.696 4.696 0 0 1-3.337 2.434l-14.096 2.48 2.004 14.223a4.725 4.725 0 0 1-1.274 3.936l-9.951 10.326 9.95 10.325a4.723 4.723 0 0 1 1.275 3.937l-2.004 14.231 14.096 2.481a4.693 4.693 0 0 1 3.336 2.433l6.707 12.69 12.856-6.312a4.67 4.67 0 0 1 4.124 0l12.853 6.313 6.71-12.692a4.696 4.696 0 0 1 3.335-2.432l14.093-2.48-2.004-14.232a4.724 4.724 0 0 1 1.274-3.937zM60.002 25C77.646 25 92 39.353 92 56.997 92 74.644 77.646 89 60.002 89 42.356 89 28 74.644 28 56.997 28 39.353 42.356 25 60.002 25zm0 54.642c12.483 0 22.64-10.159 22.64-22.645 0-12.483-10.157-22.639-22.64-22.639-12.485 0-22.643 10.156-22.643 22.639 0 12.486 10.158 22.645 22.643 22.645zm9.023-34.245a4.603 4.603 0 0 1 6.607 0c1.824 1.864 1.824 4.885 0 6.747l-17.103 17.46a4.607 4.607 0 0 1-6.605.001l-8.553-8.726c-1.826-1.862-1.828-4.882-.005-6.746a4.603 4.603 0 0 1 6.607-.004l5.252 5.357 13.8-14.09z"/>
</svg>
