<svg xmlns="http://www.w3.org/2000/svg" width="37" height="30" viewBox="0 0 37 30">
    <path fill="#87CCFF" fill-rule="evenodd" d="M24 5c-.375 0-.746.017-1.112.05A1.502 1.502 0 0 0 22.5 5h-18a1.5 1.5 0 0 0 0 3h11.563a12.037 12.037 0 0 0-2.975 4H4.5a1.5 1.5 0 0 0 0 3h7.666a12.081 12.081 0 0 0 .03 4.17A1.493 1.493 0 0 0 11.5 19h-7a1.5 1.5 0 0 0 0 3h7a1.5 1.5 0 0 0 1.284-.724A12.04 12.04 0 0 0 19.197 28H1a1 1 0 0 1-1-1V1a1 1 0 0 1 1-1h23a1 1 0 0 1 1 1v4.041A12.16 12.16 0 0 0 24 5zm7.62 16.791L36.828 27 34 29.828l-5.209-5.208a9 9 0 1 1 2.828-2.828zM24 22a5 5 0 1 0 0-10 5 5 0 0 0 0 10z"/>
</svg>
