<?xml version="1.0" encoding="utf-8"?>
<!-- Generator: Adobe Illustrator 21.0.0, SVG Export Plug-In . SVG Version: 6.00 Build 0)  -->
<svg version="1.1" id="Layer_1" xmlns="http://www.w3.org/2000/svg" xmlns:xlink="http://www.w3.org/1999/xlink" x="0px" y="0px"
	 viewBox="0 0 50 50" style="enable-background:new 0 0 50 50;" xml:space="preserve">
<style type="text/css">
	.st0{fill:#FFFFFF;}
	.st1{opacity:0.7;fill:#404040;stroke:#404040;enable-background:new    ;}
</style>
<circle class="st0" cx="25" cy="25" r="21.3"/>
<g transform="matrix(-1 0 0 1 60 10)">
	<path class="st1" d="M32.1,25.4c-0.1,0-0.2,0-0.3-0.1c-0.1,0-0.2-0.1-0.2-0.2c-0.1-0.1-0.2-0.3-0.2-0.5s0.1-0.4,0.2-0.5l9.3-9.3
		l-9.2-9.2c-0.1,0-0.2-0.1-0.2-0.3s0.1-0.4,0.2-0.5c0.1-0.1,0.3-0.2,0.5-0.2s0.4,0.1,0.5,0.2l9.6,9.7c0.1,0.1,0.2,0.3,0.2,0.5
		s-0.1,0.4-0.2,0.5l-9.8,9.8C32.4,25.4,32.3,25.4,32.1,25.4z"/>
</g>
</svg>
