<svg xmlns="http://www.w3.org/2000/svg" width="43" height="53" viewBox="0 0 43 53">
    <g fill="none" fill-rule="evenodd">
        <path fill="#F05B7A" fill-rule="nonzero" d="M41.497 13.219L30.12 1.472H5.84c-.799 0-1.447.66-1.447 1.472v47.112a1.46 1.46 0 0 0 1.447 1.472h34.21c.8 0 1.448-.66 1.448-1.472V13.219zM5.839 0h24.888l12.217 12.616v37.44c0 1.626-1.296 2.944-2.895 2.944H5.84c-1.598 0-2.895-1.318-2.895-2.944V2.944C2.944 1.318 4.241 0 5.84 0z"/>
        <path fill="#F05B7A" fill-rule="nonzero" d="M30 .742c0-.663.76-.992 1.2-.52l11.357 12.205c.434.467.123 1.257-.496 1.26l-11.358.054c-.388.002-.703-.33-.703-.74V.741zm1.4 11.514l8.994-.042L31.4 2.55v9.706z"/>
        <path fill="#E05243" d="M29.444 46.784c0 .72-.552 1.309-1.226 1.309H1.227c-.675 0-1.227-.59-1.227-1.309V33.698c0-.72.552-1.31 1.227-1.31h26.99c.675 0 1.227.59 1.227 1.31v13.086"/>
        <text fill="#FFF" font-family="Helvetica" font-size="9" letter-spacing=".169" transform="translate(0 32.389)">
            <tspan x="5.469" y="9.959">PDF</tspan>
        </text>
    </g>
</svg>
