<svg xmlns="http://www.w3.org/2000/svg" width="40" height="40" viewBox="0 0 40 40">
    <g fill="#404040" fill-rule="evenodd">
        <path d="M6.08 31.5a13.95 13.95 0 0 1 3.97-11.336c.018-.021.031-.043.05-.063.02-.02.043-.033.064-.052A13.95 13.95 0 0 1 20 16c3.83 0 7.304 1.547 9.834 4.047.022.019.045.033.066.054.02.02.035.044.053.065A13.952 13.952 0 0 1 34 30c0 1.41-.21 2.773-.6 4.058V31.5h-1.83c.014-.11.027-.222.038-.333H30.5a1.167 1.167 0 0 1 0-2.334h1.107a11.616 11.616 0 0 0-2.58-6.211l-.779.779a1.164 1.164 0 0 1-1.65 0 1.167 1.167 0 0 1 0-1.651l.78-.778a11.61 11.61 0 0 0-6.212-2.58V19.5a1.167 1.167 0 0 1-2.333 0v-1.107a11.611 11.611 0 0 0-6.212 2.58l.779.777a1.167 1.167 0 0 1-1.65 1.65l-.778-.778a11.613 11.613 0 0 0-2.58 6.211H9.5a1.167 1.167 0 0 1 0 2.334H8.393c.011.111.024.222.038.333H6.08z"/>
        <path d="M8.4 34h23.2v-4H34v6.4H6V30h2.4v4z"/>
        <path d="M23.105 27.982l1.794-1.794a1.167 1.167 0 0 0-1.65-1.65l-1.794 1.794a3.502 3.502 0 0 0-3.98.68 3.503 3.503 0 0 0 0 4.95 3.503 3.503 0 0 0 4.95 0 3.502 3.502 0 0 0 .68-3.98zm-3.98 2.33a1.168 1.168 0 0 1 1.65-1.65 1.168 1.168 0 0 1-1.65 1.65z"/>
        <text font-family="OpenSans-ExtraBold, Open Sans" font-size="9" font-weight="600">
            <tspan x="12.09" y="11">100</tspan>
        </text>
    </g>
</svg>
