<svg xmlns="http://www.w3.org/2000/svg" width="40" height="40" viewBox="0 0 40 40">
    <path fill="#404040" fill-rule="evenodd" stroke="#404040" stroke-width="1.3" d="M27.37 28.408a6.944 6.944 0 0 1-1.774-.97 17.769 17.769 0 0 1-1.58-1.48l-.047-.046a6.78 6.78 0 0 0-1.883-1.263c-1.014-.486-1.903-.44-2.44.126-.251.297-.45.633-.591.995-.072.158-.142.314-.219.45a2.279 2.279 0 0 1-.571.693 1.935 1.935 0 0 1-.335.187c-.245.1-.466.248-.653.435a1.872 1.872 0 0 0-.387.876 1.976 1.976 0 0 1-.13.417c-.191.319-.3.68-.319 1.051.006.291.091.575.247.822a11.203 11.203 0 0 1-6.845-15.416l.03-.067c.109-.287.271-.55.479-.777a.83.83 0 0 1 .256-.174 1.38 1.38 0 0 1 .549-.12.792.792 0 0 1 .34.067.547.547 0 0 1 .29.385c.036.359-.03.72-.192 1.042a2.277 2.277 0 0 0-.165 1.631c.269.703 1.018.998 1.563 1.16l.08.022c.433.07.834.27 1.149.576.142.242.232.51.265.789.05.331.15.653.3.952.438.785 1.343 1.06 2.155 1.256.872.212 1.745.428 2.62.649a.837.837 0 0 0 .539-.007.61.61 0 0 0 .381-.476c.092-.607-.747-1.337-.761-1.348l-.211-.167c-.498-.39-.967-.76-.967-1.323a.594.594 0 0 1 .347-.552c.15-.062.274-.016.566.12.08.038.16.076.233.106a.83.83 0 0 0 .955-.12.814.814 0 0 0 .193-.696c-.066-.534-.04-.755.23-.93.29-.16.606-.269.933-.324.23-.049.458-.112.682-.188a7.126 7.126 0 0 0 1.656-.933c.08-.057.172-.11.265-.166a1.88 1.88 0 0 0 .957-.97c.189-.579-.115-1.162-.905-1.731-.507-.364-1.276-.913-2.144-.789-.27.05-.53.136-.777.255-.157.074-.32.135-.487.18a.638.638 0 0 1-.471-.073c-.059-.043-.062-.076-.063-.089-.01-.104.12-.232.32-.417a1.88 1.88 0 0 0 .566-.735 1.282 1.282 0 0 0-.59-1.469 2.365 2.365 0 0 0-1.593-.249c-.19.023-.382.032-.574.028a2.183 2.183 0 0 1-1.301-.521 11.182 11.182 0 0 1 9.829 19.316zm-9.063 2.664a5.065 5.065 0 0 1-.457-.286 1.328 1.328 0 0 1-.608-.91c.023-.242.1-.475.229-.682.09-.19.155-.391.197-.598.025-.187.094-.367.2-.523.119-.108.256-.194.405-.252.168-.074.327-.165.475-.273.32-.254.585-.57.78-.93a5.95 5.95 0 0 0 .254-.521c.107-.28.255-.54.44-.774.402-.422 1.191-.109 1.511.044.61.275 1.171.647 1.66 1.103l.047.047c.518.548 1.07 1.064 1.652 1.545.482.371 1.01.68 1.57.916a11.175 11.175 0 0 1-8.359 2.09l.004.004zm-1.65-21.744c.53.65 1.312 1.044 2.15 1.085.228.006.457-.004.685-.03a1.643 1.643 0 0 1 1.092.13c.19.101.294.312.26.524-.087.16-.206.3-.35.41a1.316 1.316 0 0 0-.577 1.08c.027.27.171.513.394.667.33.22.736.293 1.123.203a3.64 3.64 0 0 0 .622-.225c.182-.09.375-.156.573-.197.507-.072 1.029.264 1.56.646.267.192.7.557.611.833-.069.212-.328.365-.601.528-.11.065-.219.13-.344.216-.443.336-.928.61-1.443.818a5.347 5.347 0 0 1-.593.16c-.418.074-.82.22-1.187.434-.736.475-.646 1.236-.59 1.693a.514.514 0 0 1-.043-.016c-.069-.028-.136-.06-.203-.092a1.32 1.32 0 0 0-2.057 1.16c0 .951.706 1.506 1.274 1.951l.197.157c.125.115.238.243.336.382-.805-.203-1.611-.403-2.418-.599-.678-.164-1.363-.366-1.643-.867a2.498 2.498 0 0 1-.215-.72 2.66 2.66 0 0 0-.406-1.107 2.736 2.736 0 0 0-1.573-.87l-.073-.021c-.602-.179-.931-.394-1.038-.676a1.635 1.635 0 0 1 .169-1.07 2.54 2.54 0 0 0 .216-1.517 1.34 1.34 0 0 0-.719-.907 1.592 1.592 0 0 0-.692-.15c-.051 0-.103.003-.155.007a11.096 11.096 0 0 1 5.659-4.02zm3.33-1.307a11.889 11.889 0 0 0-3.271.453l-.016.005A11.92 11.92 0 0 0 9.67 13.9a.402.402 0 0 0-.052.152c-.191.255-.35.533-.473.828l-.03.065A12 12 0 0 0 19.988 32a11.933 11.933 0 0 0 7.554-2.688.396.396 0 0 0 .401-.245.407.407 0 0 0 .021-.114A11.983 11.983 0 0 0 19.988 8.02z"/>
</svg>
