<svg xmlns="http://www.w3.org/2000/svg" xmlns:xlink="http://www.w3.org/1999/xlink" width="40" height="40" viewBox="0 0 40 40">
    <defs>
        <path id="a" d="M.003 0h26.99v28H.003z"/>
    </defs>
    <g fill="none" fill-rule="evenodd" transform="translate(6 6)">
        <mask id="b" fill="#fff">
            <use xlink:href="#a"/>
        </mask>
        <path fill="#404040" d="M13.496 18.87c-1.488 0-2.699-1.23-2.699-2.74 0-1.19.752-2.205 1.8-2.582v2.582c0 .505.403.913.9.913.496 0 .9-.408.9-.913v-2.582a2.741 2.741 0 0 1 1.799 2.582c0 1.51-1.211 2.74-2.7 2.74zm0-7.305c-2.48 0-4.498 2.048-4.498 4.565 0 2.518 2.018 4.566 4.498 4.566 2.481 0 4.5-2.048 4.5-4.566 0-2.517-2.019-4.565-4.5-4.565z" mask="url(#b)"/>
        <path fill="#404040" d="M25.193 26.174H1.8v-.913c0-.504.403-.913.9-.913h21.594c.496 0 .9.41.9.913v.913zM5.4 10.652c0-.503.403-.913.9-.913h14.396c.496 0 .9.41.9.913v11.87H5.398v-11.87zm7.198-2.739h1.8V6.087h-1.8v1.826zM5.523 1.826H21.47c-.393 1.404-1.667 2.435-3.175 2.435H8.698c-1.508 0-2.782-1.031-3.175-2.435zm18.77 20.696h-.9v-11.87c0-1.51-1.21-2.739-2.698-2.739h-4.5V6.087h2.1c2.812 0 5.099-2.321 5.099-5.174a.906.906 0 0 0-.9-.913H4.5c-.497 0-.9.409-.9.913 0 2.853 2.287 5.174 5.099 5.174h2.1v1.826h-4.5c-1.488 0-2.699 1.229-2.699 2.74v11.869h-.9C1.211 22.522 0 23.75 0 25.26v1.826c0 .504.403.913.9.913h25.193c.497 0 .9-.409.9-.913V25.26c0-1.51-1.21-2.74-2.7-2.74z" mask="url(#b)"/>
    </g>
</svg>
