<svg xmlns="http://www.w3.org/2000/svg" xmlns:xlink="http://www.w3.org/1999/xlink" width="40" height="40" viewBox="0 0 40 40">
    <defs>
        <path id="a" d="M0 0h40v40H0z"/>
    </defs>
    <g fill="none" fill-rule="evenodd">
        <path d="M0 0h40v40H0z"/>
        <mask id="b" fill="#fff">
            <use xlink:href="#a"/>
        </mask>
        <path fill="#404040" d="M11.545 23.5H9.273C8.019 23.5 7 24.547 7 25.833v5.834C7 32.953 8.02 34 9.273 34h2.272c1.254 0 2.273-1.047 2.273-2.333v-1.75h2.273v.583c0 1.93 1.529 3.5 3.409 3.5s3.41-1.57 3.41-3.5v-.583h2.272v1.75c0 1.286 1.02 2.333 2.273 2.333h2.272C30.981 34 32 32.953 32 31.667v-5.834c0-1.286-1.02-2.333-2.273-2.333h-2.272c-1.254 0-2.273 1.047-2.273 2.333v1.75h-2.273V27c0-1.52-.95-2.814-2.273-3.296v-9.158a3.467 3.467 0 0 0 2.074-2.13h2.472v1.75c0 1.287 1.02 2.334 2.273 2.334h2.272c1.254 0 2.273-1.046 2.273-2.333V8.333C32 7.046 30.98 6 29.727 6h-2.272c-1.254 0-2.273 1.046-2.273 2.333v1.75H22.71c-.469-1.357-1.729-2.333-3.21-2.333-1.481 0-2.741.976-3.21 2.333h-2.472v-1.75c0-1.287-1.02-2.333-2.273-2.333H9.273C8.019 6 7 7.046 7 8.333v5.834C7 15.454 8.02 16.5 9.273 16.5h2.272c1.254 0 2.273-1.046 2.273-2.333v-1.75h2.472a3.467 3.467 0 0 0 2.074 2.129v9.158C17.04 24.186 16.09 25.48 16.09 27v.583h-2.273v-1.75c0-1.286-1.02-2.333-2.273-2.333zm15.91 2.333h2.272v5.834h-2.272l-.001-2.909v-.008-.009l-.001-2.908h.002zm0-17.5h2.272v5.834h-2.272l-.001-2.909v-.008-.009l-.001-2.908h.002zm-15.91 5.834H9.273l-.001-5.834h2.273v5.834zm7.955-4.084c.627 0 1.136.524 1.136 1.167s-.51 1.167-1.136 1.167c-.627 0-1.136-.524-1.136-1.167s.51-1.167 1.136-1.167zM18.364 27c0-.643.51-1.167 1.136-1.167.627 0 1.136.524 1.136 1.167v3.5c0 .643-.51 1.167-1.136 1.167-.627 0-1.136-.524-1.136-1.167V27zm-6.819 4.667H9.273l-.001-5.834h2.273v5.834z" mask="url(#b)"/>
    </g>
</svg>
