<svg xmlns="http://www.w3.org/2000/svg" width="40" height="40" viewBox="0 0 40 40">
    <g fill="#404040" fill-rule="evenodd" stroke="#404040" stroke-width=".5">
        <path d="M20.329 22.49l-.192-.032.112-.158a1.993 1.993 0 0 0-.213-2.576l-.76-.76a1.994 1.994 0 0 0-2.576-.213l-.158.112-.032-.192A1.993 1.993 0 0 0 14.537 17h-1.074c-.982 0-1.812.703-1.973 1.67l-.032.193-.159-.112a1.993 1.993 0 0 0-2.576.213l-.76.76A1.993 1.993 0 0 0 7.75 22.3l.113.158-.192.032A1.993 1.993 0 0 0 6 24.463v1.074c0 .982.703 1.812 1.671 1.973l.194.03-.002.002-.112.158a1.993 1.993 0 0 0 .213 2.576l.76.76a1.993 1.993 0 0 0 2.576.213l.158-.112.032.192c.161.968.991 1.671 1.973 1.671h1.074c.982 0 1.812-.703 1.973-1.67l.032-.193.159.112c.798.571 1.882.48 2.576-.213l.76-.76a1.993 1.993 0 0 0 .213-2.576l-.113-.158.192-.032A1.993 1.993 0 0 0 22 25.537v-1.074c0-.982-.703-1.812-1.671-1.973zm.338 3.047a.665.665 0 0 1-.558.658l-.192.032a1.325 1.325 0 0 0-1.012.804c-.177.428-.122.909.146 1.285l.114.159c.19.266.16.627-.072.858l-.759.76a.664.664 0 0 1-.86.07l-.157-.112a1.326 1.326 0 0 0-1.285-.147 1.325 1.325 0 0 0-.805 1.012l-.032.193a.665.665 0 0 1-.658.558h-1.074a.665.665 0 0 1-.658-.558l-.032-.192a1.326 1.326 0 0 0-.805-1.012 1.33 1.33 0 0 0-1.285.146l-.158.113a.665.665 0 0 1-.86-.07l-.759-.76a.664.664 0 0 1-.07-.86l.112-.157c.27-.377.324-.858.147-1.285a1.325 1.325 0 0 0-1.013-.805l-.192-.032a.665.665 0 0 1-.557-.658v-1.074c0-.328.235-.604.558-.658l.192-.032a1.325 1.325 0 0 0 1.012-.805 1.327 1.327 0 0 0-.146-1.285l-.114-.158a.665.665 0 0 1 .072-.859l.759-.759a.664.664 0 0 1 .86-.071l.157.113c.377.269.858.324 1.285.146.428-.177.729-.555.805-1.012l.032-.193a.665.665 0 0 1 .658-.557h1.074c.327 0 .604.235.658.558l.032.192c.077.457.377.835.805 1.012.427.178.909.123 1.285-.146l.158-.113a.665.665 0 0 1 .86.071l.759.76a.664.664 0 0 1 .07.858l-.112.159a1.325 1.325 0 0 0-.147 1.285c.177.427.556.728 1.013.804l.192.032c.322.054.557.33.557.658v1.074z"/>
        <path d="M14 22c-1.654 0-3 1.346-3 3s1.346 3 3 3 3-1.346 3-3-1.346-3-3-3zm0 5c-1.103 0-2-.897-2-2s.897-2 2-2 2 .897 2 2-.897 2-2 2z"/>
        <g>
            <path d="M31.808 13.925l-.168-.099.162-.107a1.993 1.993 0 0 0 .724-2.482l-.437-.981a1.994 1.994 0 0 0-2.328-1.123l-.189.049.039-.19a1.993 1.993 0 0 0-1.243-2.268l-1.003-.385a1.993 1.993 0 0 0-2.44.853l-.1.168-.107-.162a1.993 1.993 0 0 0-2.481-.724l-.981.437a1.993 1.993 0 0 0-1.123 2.328l.049.189-.191-.04a1.993 1.993 0 0 0-2.267 1.244l-.385 1.003a1.993 1.993 0 0 0 .853 2.44l.17.097-.002.002-.162.107a1.993 1.993 0 0 0-.724 2.482l.437.981a1.993 1.993 0 0 0 2.328 1.123l.189-.049-.039.19a1.993 1.993 0 0 0 1.243 2.268l1.003.385a1.993 1.993 0 0 0 2.44-.853l.1-.168.107.162a1.994 1.994 0 0 0 2.481.724l.981-.437a1.993 1.993 0 0 0 1.123-2.328l-.049-.189.191.04a1.993 1.993 0 0 0 2.267-1.244l.385-1.003a1.993 1.993 0 0 0-.853-2.44zm-.777 2.965a.665.665 0 0 1-.756.415l-.19-.04a1.325 1.325 0 0 0-1.234.39c-.319.335-.44.803-.324 1.251l.05.189a.665.665 0 0 1-.375.776l-.98.437a.664.664 0 0 1-.828-.242l-.108-.162a1.326 1.326 0 0 0-1.147-.597c-.463.012-.88.257-1.114.656l-.1.169a.665.665 0 0 1-.813.284l-1.003-.385a.665.665 0 0 1-.414-.756l.039-.19a1.326 1.326 0 0 0-.389-1.234 1.33 1.33 0 0 0-1.252-.324l-.188.049a.665.665 0 0 1-.777-.374l-.436-.982a.664.664 0 0 1 .241-.827l.162-.107c.386-.255.61-.684.597-1.147a1.325 1.325 0 0 0-.656-1.114l-.168-.099a.665.665 0 0 1-.284-.814l.385-1.003a.665.665 0 0 1 .756-.414l.19.039c.454.093.915-.053 1.234-.389.319-.336.44-.804.324-1.252l-.05-.188a.665.665 0 0 1 .375-.776l.981-.437a.664.664 0 0 1 .828.242l.107.162c.255.386.684.61 1.147.597.463-.012.88-.258 1.114-.656l.1-.169a.665.665 0 0 1 .813-.284l1.003.385c.305.117.48.435.414.756l-.039.19c-.092.455.053.915.389 1.234.335.32.804.44 1.252.324l.188-.049a.665.665 0 0 1 .777.375l.436.98a.664.664 0 0 1-.241.828l-.162.107c-.386.256-.61.685-.598 1.147.013.463.258.88.657 1.114l.168.1a.665.665 0 0 1 .284.813l-.385 1.002z"/>
            <path d="M26.075 11.2a3.003 3.003 0 0 0-3.876 1.725 3.003 3.003 0 0 0 1.726 3.876 3.003 3.003 0 0 0 3.876-1.726 3.003 3.003 0 0 0-1.726-3.876zm-1.792 4.667a2.002 2.002 0 0 1-1.15-2.584 2.002 2.002 0 0 1 2.584-1.15 2.002 2.002 0 0 1 1.15 2.584 2.002 2.002 0 0 1-2.584 1.15z"/>
        </g>
    </g>
</svg>
