<svg xmlns="http://www.w3.org/2000/svg" width="40" height="40" viewBox="0 0 40 40">
    <path fill="#404040" fill-rule="evenodd" d="M32.833 17.647c-.644 0-1.166.527-1.166 1.177V20h-2.334v-1.765A2.346 2.346 0 0 0 27 15.882h-2.917v-3.53h1.167c.644 0 1.167-.526 1.167-1.176 0-.649-.523-1.176-1.167-1.176h-10.5c-.644 0-1.167.527-1.167 1.176 0 .65.523 1.177 1.167 1.177h1.167v3.53H13a2.346 2.346 0 0 0-2.333 2.352H8.333V17.06c0-.65-.522-1.177-1.166-1.177-.644 0-1.167.527-1.167 1.177v8.823c0 .65.523 1.177 1.167 1.177s1.166-.527 1.166-1.177v-1.176h2.603c.109.212.241.414.414.588l3.983 4.017c.44.444 1.027.689 1.65.689H27a2.346 2.346 0 0 0 2.333-2.353v-1.176h2.334v1.176c0 .65.522 1.177 1.166 1.177.644 0 1.167-.528 1.167-1.177v-8.823c0-.65-.523-1.177-1.167-1.177zM18.25 15.882h3.5v-3.53h-3.5v3.53zm-9.917 6.47h2.334v-1.764H8.333v1.765zM27 27.648H16.984L13 23.631v-5.396h14v9.412zm2.333-3.53h2.334v-1.764h-2.334v1.765z"/>
</svg>
