<svg xmlns="http://www.w3.org/2000/svg" width="40" height="40" viewBox="0 0 40 40">
    <g fill="none" fill-rule="evenodd">
        <path fill="#000" d="M14.167 27.583c0-.964-.786-1.75-1.75-1.75-.965 0-1.75.786-1.75 1.75 0 .965.785 1.75 1.75 1.75.964 0 1.75-.785 1.75-1.75z"/>
        <path fill="#404040" d="M25.044 9.807A5.256 5.256 0 0 0 20 6a5.23 5.23 0 0 0-3.673 1.505c-.012.012-.027.02-.04.033-.011.012-.02.027-.031.04a5.242 5.242 0 0 0-1.32 2.308L7.142 23.94A6.38 6.38 0 0 0 6 27.583 6.424 6.424 0 0 0 12.417 34c.472 0 .93-.055 1.373-.152l.036-.003 15.67-3.353A4.67 4.67 0 0 0 34 25.833c0-1.204-.463-2.3-1.215-3.13L25.044 9.808zm.774 19.085l-7.714 1.65c.463-.886.73-1.891.73-2.959a6.424 6.424 0 0 0-6.417-6.416c-.386 0-.762.04-1.129.105l4.136-7.456A5.251 5.251 0 0 0 20 16.5a5.253 5.253 0 0 0 4.649-2.818l4.498 7.494a4.669 4.669 0 0 0-4.48 4.657c0 1.171.436 2.24 1.15 3.06zM22.917 11.25A2.92 2.92 0 0 1 20 14.167a2.92 2.92 0 0 1-2.917-2.917A2.92 2.92 0 0 1 20 8.333a2.92 2.92 0 0 1 2.917 2.917zM8.333 27.583a4.089 4.089 0 0 1 4.084-4.083 4.089 4.089 0 0 1 4.083 4.083 4.089 4.089 0 0 1-4.083 4.084 4.089 4.089 0 0 1-4.084-4.084zm21 .584A2.336 2.336 0 0 1 27 25.833a2.336 2.336 0 0 1 2.333-2.333 2.336 2.336 0 0 1 2.334 2.333 2.336 2.336 0 0 1-2.334 2.334z"/>
    </g>
</svg>
