<svg xmlns="http://www.w3.org/2000/svg" width="40" height="40" viewBox="0 0 40 40">
    <g fill="#404040" fill-rule="evenodd" stroke="#404040">
        <path stroke-width="1.3" d="M25.465 24.823H16.32a.398.398 0 1 1 0-.797h9.145a.398.398 0 1 1 0 .797z"/>
        <path stroke-width="1.3" d="M14.148 26.998a2.578 2.578 0 0 1-2.578-2.574 2.58 2.58 0 0 1 2.578-2.578 2.58 2.58 0 0 1 2.575 2.578 2.577 2.577 0 0 1-2.575 2.574zm0-4.351c-.98 0-1.777.797-1.777 1.777 0 .981.797 1.778 1.777 1.778a1.778 1.778 0 0 0 0-3.555zM27.645 26.998a2.578 2.578 0 0 1-2.579-2.574 2.581 2.581 0 0 1 2.579-2.578 2.577 2.577 0 0 1 0 5.152zm0-4.351c-.981 0-1.778.797-1.778 1.777a1.78 1.78 0 0 0 1.778 1.778c.98 0 1.777-.797 1.777-1.778 0-.98-.801-1.777-1.777-1.777z"/>
        <path stroke-width="1.3" d="M25.469 24.823h-9.145a.399.399 0 0 1 0-.797h9.145a.399.399 0 1 1 0 .797z"/>
        <path stroke-width="1.5" d="M31.738 24.823h-1.922a.398.398 0 1 1 0-.797h1.922a.995.995 0 0 0 .989-.848l.425-2.73a.69.69 0 0 0-.132-.535.717.717 0 0 0-.481-.274l-5.328-.652a.391.391 0 0 1-.211-.09l-4.816-4.047a1.753 1.753 0 0 0-1.137-.414h-7.535a1.08 1.08 0 0 0-.914.5l-2.25 3.523a.398.398 0 0 1-.223.168l-2.719.821a.85.85 0 0 0-.594.945l.379 2.438c.11.691.696 1.191 1.395 1.191h3.383a.4.4 0 0 1 0 .801H8.582a2.2 2.2 0 0 1-2.184-1.867l-.378-2.442a1.657 1.657 0 0 1 1.152-1.832l2.578-.777 2.176-3.403a1.874 1.874 0 0 1 1.586-.867h7.539a2.57 2.57 0 0 1 1.648.602l4.727 3.972 5.211.633c.41.051.773.258 1.019.59.25.328.352.731.289 1.141l-.429 2.73a1.789 1.789 0 0 1-1.778 1.52z"/>
        <path stroke-width="1.3" d="M22.93 19.299h-9.176a.397.397 0 0 1-.399-.398.4.4 0 0 1 .399-.403h9.176a.401.401 0 0 1 0 .801z"/>
    </g>
</svg>
