<svg xmlns="http://www.w3.org/2000/svg" width="40" height="40" viewBox="0 0 40 40">
    <g fill="#404040" fill-rule="evenodd">
        <path d="M21.713 10.058h-5.861a2.341 2.341 0 0 0-2.345 2.333v2.334a2.341 2.341 0 0 0 2.345 2.333h5.861a2.341 2.341 0 0 0 2.345-2.333V12.39a2.341 2.341 0 0 0-2.345-2.333zm0 4.667h-5.861l-.001-2.334h5.862v2.334z"/>
        <path d="M32.867 12.826l-4.7-2.82V8.333A2.336 2.336 0 0 0 25.833 6h-14A2.336 2.336 0 0 0 9.5 8.333v19.25H8.333A2.336 2.336 0 0 0 6 29.917v1.75A2.336 2.336 0 0 0 8.333 34h21a2.336 2.336 0 0 0 2.334-2.333v-1.75a2.336 2.336 0 0 0-2.334-2.334h-1.166v-2.946C31.432 24.341 34 21.591 34 18.25v-3.423c0-.814-.434-1.58-1.133-2zm-3.534 18.84h-21v-1.75h21v1.75zm-17.5-4.083V8.333h14v19.25h-14zm19.834-9.333a4.086 4.086 0 0 1-3.5 4.037v-9.56l3.5 2.1v3.423z"/>
    </g>
</svg>
