<svg xmlns="http://www.w3.org/2000/svg" xmlns:xlink="http://www.w3.org/1999/xlink" width="40" height="40" viewBox="0 0 40 40">
    <defs>
        <path id="a" d="M0 0h28v27.996H0z"/>
    </defs>
    <g fill="none" fill-rule="evenodd">
        <g transform="translate(6 6)">
            <mask id="b" fill="#fff">
                <use xlink:href="#a"/>
            </mask>
            <path fill="#404040" d="M14 0C6.28 0 0 6.28 0 14s6.28 14 14 14 14-6.28 14-14S21.72 0 14 0zm0 25.667C7.567 25.667 2.333 20.433 2.333 14S7.567 2.333 14 2.333 25.667 7.567 25.667 14 20.433 25.667 14 25.667z" mask="url(#b)"/>
        </g>
        <path fill="#404040" d="M25.833 13c-.644 0-1.166.523-1.166 1.167v4.666h-3.5v-4.666a1.167 1.167 0 0 0-2.334 0v4.666h-3.5v-4.666a1.167 1.167 0 0 0-2.333 0v11.666a1.167 1.167 0 0 0 2.333 0v-4.666h3.5v4.666a1.167 1.167 0 0 0 2.334 0v-4.666h3.5v4.666a1.167 1.167 0 0 0 2.333 0V14.167c0-.644-.523-1.167-1.167-1.167z"/>
    </g>
</svg>
