<svg xmlns="http://www.w3.org/2000/svg" width="40" height="40" viewBox="0 0 40 40">
    <path fill="#404040" fill-rule="evenodd" stroke="#404040" stroke-width=".8" d="M30 28.672v2.27C30 32.628 28.61 34 26.9 34H13.1C11.39 34 10 32.628 10 30.942v-2.27c0-.435.357-.788.798-.788h.213a.922.922 0 0 1-.003-.069v-2.111a.771.771 0 0 1 .135-.457.784.784 0 0 1 .374-.296c.316-.13.63-.264.94-.401v-9.628c0-1.565 1.01-2.94 2.45-3.469a3.344 3.344 0 0 1-.003-.13V9.379C14.904 7.515 16.439 6 18.326 6h3.347c1.887 0 3.423 1.515 3.423 3.378v1.946l-.003.13c.568.207 1.076.549 1.482.993l.043-.079a.803.803 0 0 1 1.078-.33c.39.204.54.681.334 1.066-1.495 2.795-3.665 5.385-6.45 7.697-2.224 1.846-4.748 3.44-7.525 4.756v2.327h11.89v-9.483c0-.435.357-.788.798-.788.442 0 .799.353.799.788v9.483h1.66c.44 0 .798.353.798.788zM16.5 11.324a1.782 1.782 0 0 0 .08.525 1.826 1.826 0 0 0 1.746 1.277h3.347a1.827 1.827 0 0 0 1.764-1.336c.04-.149.062-.305.062-.466V9.378c0-.994-.82-1.802-1.826-1.802h-3.347c-1.007 0-1.825.808-1.825 1.802v1.946zm-2.445 12.473c4.984-2.497 9.079-5.967 11.636-9.87a2.164 2.164 0 0 0-1.035-.949 3.433 3.433 0 0 1-2.983 1.723h-3.347a3.433 3.433 0 0 1-2.983-1.723 2.134 2.134 0 0 0-1.288 1.944v8.875zm14.348 5.663H11.597v1.482c0 .817.674 1.482 1.502 1.482H26.9c.828 0 1.502-.665 1.502-1.482V29.46z"/>
</svg>
