<svg xmlns="http://www.w3.org/2000/svg" width="40" height="40" viewBox="0 0 40 40">
    <g fill="#404040" fill-rule="evenodd">
        <path d="M20 17.594a.82.82 0 0 0 .82-.82v-1.641a.82.82 0 1 0-1.64 0v1.64c0 .454.367.82.82.82zM20.82 31.54v-1.642a.82.82 0 1 0-1.64 0v1.641a.82.82 0 1 0 1.64 0zM20 27.438a.82.82 0 0 0 .82-.82v-1.641a.82.82 0 1 0-1.64 0v1.64c0 .453.367.82.82.82zM20 22.516a.82.82 0 0 0 .82-.82v-1.641a.82.82 0 1 0-1.64 0v1.64c0 .453.367.82.82.82z"/>
        <path stroke="#404040" stroke-width=".5" d="M33.18 9.336h-8.592l-.5-2.667A.82.82 0 0 0 23.28 6H16.72a.82.82 0 0 0-.806.669l-.5 2.667H6.82a.82.82 0 0 0-.82.82v3.281c0 .454.368.82.82.82.453 0 .82.369.82.821v3.281c0 .453.368.82.82.82h3.337a.82.82 0 0 0 .82-.82v-3.28c0-.453.368-.821.82-.821h1.064l-3.51 18.77a.82.82 0 0 0 .806.972h16.406a.82.82 0 0 0 .806-.971L25.5 14.258h1.064c.452 0 .82.368.82.82v3.281c0 .453.367.82.82.82h3.336a.82.82 0 0 0 .82-.82v-3.28c0-.453.368-.821.82-.821a.82.82 0 0 0 .821-.82v-3.282a.82.82 0 0 0-.82-.82zM17.4 7.64h5.2l.318 1.695h-5.836L17.4 7.64zm9.815 24.718h-14.43l3.384-18.101h7.661l3.385 18.101zm5.144-19.601a2.465 2.465 0 0 0-1.64 2.32v2.461h-1.696v-2.46a2.464 2.464 0 0 0-2.46-2.462H13.438a2.464 2.464 0 0 0-2.461 2.461v2.461H9.28v-2.46c0-1.07-.685-1.983-1.64-2.321v-1.781h24.718v1.78z"/>
    </g>
</svg>
