<svg xmlns="http://www.w3.org/2000/svg" width="40" height="40" viewBox="0 0 40 40">
    <g fill="#404040" fill-rule="evenodd" stroke="#404040">
        <path d="M19.903 19.951h.155c1.425-.024 2.578-.535 3.43-1.513 1.871-2.153 1.56-5.844 1.526-6.196-.122-2.645-1.347-3.91-2.358-4.5-.754-.442-1.635-.68-2.617-.7h-.083c-.54 0-1.6.09-2.616.68-1.021.59-2.266 1.855-2.388 4.52-.034.352-.345 4.043 1.527 6.196.846.978 1.999 1.489 3.424 1.513zm-3.653-7.585c0-.015.005-.03.005-.04.161-3.557 2.636-3.94 3.697-3.94h.058c1.313.03 3.545.576 3.696 3.94 0 .015 0 .03.005.04.005.034.345 3.408-1.202 5.184-.612.705-1.43 1.052-2.504 1.062h-.049c-1.07-.01-1.892-.357-2.5-1.062-1.541-1.766-1.21-5.155-1.206-5.184zM29.975 27.073v-.014c0-.04-.005-.08-.005-.124-.03-.983-.093-3.28-2.203-4.014l-.049-.015c-2.193-.57-4.017-1.86-4.036-1.875a.648.648 0 0 0-.915.163.678.678 0 0 0 .16.933c.084.06 2.02 1.434 4.441 2.069 1.133.412 1.26 1.647 1.293 2.778 0 .045 0 .085.005.124.005.447-.024 1.137-.102 1.533-.788.457-3.876 2.034-8.574 2.034-4.678 0-7.786-1.582-8.578-2.039-.078-.397-.112-1.086-.102-1.533 0-.04.004-.079.004-.124.035-1.13.16-2.366 1.294-2.778 2.422-.635 4.357-2.014 4.44-2.069a.678.678 0 0 0 .16-.933.648.648 0 0 0-.914-.163c-.019.015-1.833 1.304-4.036 1.875-.02.005-.034.01-.049.015-2.11.74-2.174 3.036-2.203 4.014 0 .044 0 .084-.005.124v.015c-.005.258-.01 1.582.248 2.247.049.129.136.238.253.312.146.1 3.643 2.372 9.493 2.372 5.85 0 9.347-2.277 9.493-2.372a.66.66 0 0 0 .253-.312c.243-.66.238-1.985.234-2.243z"/>
    </g>
</svg>
