<svg xmlns="http://www.w3.org/2000/svg" width="40" height="40" viewBox="0 0 40 40">
    <g fill="#404040" fill-rule="evenodd">
        <path d="M30.719 31.813H9.28c-.603 0-1.094-.491-1.094-1.094V16.28h23.626V30.72c0 .603-.491 1.093-1.094 1.093zM9.28 10.375h1.313v2.188h2.187v-2.188H27.22v2.188h2.187v-2.188h1.313c.603 0 1.093.49 1.093 1.094v2.625H8.188v-2.625c0-.603.491-1.094 1.094-1.094zM30.72 8.187h-1.313V6H27.22v2.188H12.78V6h-2.187v2.188H9.28A3.285 3.285 0 0 0 6 11.467v19.25A3.285 3.285 0 0 0 9.281 34H30.72A3.285 3.285 0 0 0 34 30.719v-19.25a3.285 3.285 0 0 0-3.281-3.281z"/>
        <path d="M10.156 20.766h2.188v-2.188h-2.188zM14.531 20.766h2.188v-2.188H14.53zM18.906 20.766h2.188v-2.188h-2.188zM23.281 20.766h2.188v-2.188H23.28zM27.656 20.766h2.188v-2.188h-2.188zM10.156 25.14h2.188v-2.187h-2.188zM14.531 25.14h2.188v-2.187H14.53zM18.906 25.14h2.188v-2.187h-2.188zM23.281 25.14h2.188v-2.187H23.28zM10.156 29.516h2.188v-2.188h-2.188zM14.531 29.516h2.188v-2.188H14.53zM18.906 29.516h2.188v-2.188h-2.188zM23.281 29.516h2.188v-2.188H23.28zM27.656 25.14h2.188v-2.187h-2.188z"/>
    </g>
</svg>
