<svg xmlns="http://www.w3.org/2000/svg" width="40" height="40" viewBox="0 0 40 40">
    <path fill="#404040" fill-rule="evenodd" stroke="#404040" stroke-width=".3" d="M26.854 14.392c0-2.276-1.664-4.166-3.827-4.497V8.881h1.739V7.118h-1.739v-.985h-3.205c-1.549 0-2.809 1.273-2.809 2.837v.925c-2.163.33-3.826 2.221-3.826 4.497v1.044h-1.143v1.763h1.143v14.964h-.897v1.764h15.56v-1.764h-.996V17.2h1.143v-1.763h-1.143v-1.044zm-7.032-6.496h1.46v1.948h-2.523V8.97a1.07 1.07 0 0 1 1.063-1.074zm-4.89 20.286h4.907V21.18h-4.906v7.002zm10.176 3.981H14.933v-2.218h6.652V19.417h-6.652v-2.218h10.175v14.964zM14.933 15.436v-1.044c0-1.536 1.236-2.785 2.756-2.785h4.662c1.52 0 2.757 1.25 2.757 2.785v1.044H14.933z"/>
</svg>
